<svg
    xmlns="http://www.w3.org/2000/svg"
    viewBox="0 0 135.46 143.36"
    fill="none"
  >
    <polyline
      fill="#7f3f98"
      points="115.69 41.57 82.39 113.51 73.89 113.4 113.31 28.48 102.62 28.48 71.4 97.19 42.36 37.17 60.29 36.88 72.08 61.22 74.8 67.11 74.95 67.19 96.48 19.26 126.03 19.26"
    />
    <polygon
      fill="#fff"
      points="126.05 97.27 126.05 124.79 98.44 124.79 98.44 115.47 116.74 115.47 116.74 97.27 126.05 97.27"
    />
    <polygon
      fill="#fff"
      points="20.49 46.77 20.49 19.25 48.1 19.25 48.1 28.57 29.8 28.57 29.8 46.77 20.49 46.77"
    />
    <polygon
      fill="#fff"
      points="48 124.83 20.48 124.83 20.48 97.22 29.8 97.22 29.8 115.52 48 115.52 48 124.83"
    />
  </svg>
